# Blender 4.5.3 LTS
# www.blender.org
mtllib carpet.mtl
o Circle.001
v 0.483573 1.344570 8.150110
v 1.208432 1.344570 8.078716
v 1.905434 1.344570 7.867284
v 2.547796 1.344570 7.523933
v 3.110831 1.344570 7.061863
v 3.572901 1.344570 6.498829
v 3.916250 1.344570 5.856467
v 4.127683 1.344570 5.159464
v 4.199075 1.344570 4.434605
v 4.127683 1.344570 3.709746
v 3.916249 1.344570 3.012743
v 3.572899 1.344570 2.370381
v 3.110828 1.344570 1.807347
v 2.547794 1.344570 1.345277
v 1.905433 1.344570 1.001927
v 1.208429 1.344570 0.790494
v 0.483570 1.344570 0.719102
v -0.241289 1.344570 0.790495
v -0.938292 1.344570 1.001928
v -1.580653 1.344570 1.345278
v -2.143688 1.344570 1.807349
v -2.605758 1.344570 2.370383
v -2.949107 1.344570 3.012745
v -3.160540 1.344570 3.709748
v -3.231933 1.344570 4.434608
v -3.160540 1.344570 5.159466
v -2.949107 1.344570 5.856469
v -2.605757 1.344570 6.498831
v -2.143686 1.344570 7.061865
v -1.580651 1.344570 7.523935
v -0.938289 1.344570 7.867285
v -0.241286 1.344570 8.078718
v 0.483573 1.344570 8.150110
v 1.208432 1.344570 8.078716
v 1.905434 1.344570 7.867284
v 2.547796 1.344570 7.523933
v 3.110831 1.344570 7.061863
v 3.572901 1.344570 6.498829
v 3.916250 1.344570 5.856467
v 4.127683 1.344570 5.159464
v 4.199075 1.344570 4.434605
v 4.127683 1.344570 3.709746
v 3.916249 1.344570 3.012743
v 3.572899 1.344570 2.370381
v 3.110828 1.344570 1.807347
v 2.547794 1.344570 1.345277
v 1.905433 1.344570 1.001927
v 1.208429 1.344570 0.790494
v 0.483570 1.344570 0.719102
v -0.241289 1.344570 0.790495
v -0.938292 1.344570 1.001928
v -1.580653 1.344570 1.345278
v -2.143688 1.344570 1.807349
v -2.605758 1.344570 2.370383
v -2.949107 1.344570 3.012745
v -3.160540 1.344570 3.709748
v -3.231933 1.344570 4.434608
v -3.160540 1.344570 5.159466
v -2.949107 1.344570 5.856469
v -2.605757 1.344570 6.498831
v -2.143686 1.344570 7.061865
v -1.580651 1.344570 7.523935
v -0.938289 1.344570 7.867285
v -0.241286 1.344570 8.078718
v 0.483573 1.344570 8.150110
v 1.208432 1.344570 8.078716
v 1.905434 1.344570 7.867284
v 2.547796 1.344570 7.523933
v 3.110831 1.344570 7.061863
v 3.572901 1.344570 6.498829
v 3.916250 1.344570 5.856467
v 4.127683 1.344570 5.159464
v 4.199075 1.344570 4.434605
v 4.127683 1.344570 3.709746
v 3.916249 1.344570 3.012743
v 3.572899 1.344570 2.370381
v 3.110828 1.344570 1.807347
v 2.547794 1.344570 1.345277
v 1.905433 1.344570 1.001927
v 1.208429 1.344570 0.790494
v 0.483570 1.344570 0.719102
v -0.241289 1.344570 0.790495
v -0.938292 1.344570 1.001928
v -1.580653 1.344570 1.345278
v -2.143688 1.344570 1.807349
v -2.605758 1.344570 2.370383
v -2.949107 1.344570 3.012745
v -3.160540 1.344570 3.709748
v -3.231933 1.344570 4.434608
v -3.160540 1.344570 5.159466
v -2.949107 1.344570 5.856469
v -2.605757 1.344570 6.498831
v -2.143686 1.344570 7.061865
v -1.580651 1.344570 7.523935
v -0.938289 1.344570 7.867285
v -0.241286 1.344570 8.078718
v 0.483573 1.344570 8.150110
v 1.208432 1.344570 8.078716
v 1.905434 1.344570 7.867284
v 2.547796 1.344570 7.523933
v 3.110831 1.344570 7.061863
v 3.572901 1.344570 6.498829
v 3.916250 1.344570 5.856467
v 4.127683 1.344570 5.159464
v 4.199075 1.344570 4.434605
v 4.127683 1.344570 3.709746
v 3.916249 1.344570 3.012743
v 3.572899 1.344570 2.370381
v 3.110828 1.344570 1.807347
v 2.547794 1.344570 1.345277
v 1.905433 1.344570 1.001927
v 1.208429 1.344570 0.790494
v 0.483570 1.344570 0.719102
v -0.241289 1.344570 0.790495
v -0.938292 1.344570 1.001928
v -1.580653 1.344570 1.345278
v -2.143688 1.344570 1.807349
v -2.605758 1.344570 2.370383
v -2.949107 1.344570 3.012745
v -3.160540 1.344570 3.709748
v -3.231933 1.344570 4.434608
v -3.160540 1.344570 5.159466
v -2.949107 1.344570 5.856469
v -2.605757 1.344570 6.498831
v -2.143686 1.344570 7.061865
v -1.580651 1.344570 7.523935
v -0.938289 1.344570 7.867285
v -0.241286 1.344570 8.078718
v 0.483573 1.344570 8.150110
v 1.208432 1.344570 8.078716
v 1.905434 1.344570 7.867284
v 2.547796 1.344570 7.523933
v 3.110831 1.344570 7.061863
v 3.572901 1.344570 6.498829
v 3.916250 1.344570 5.856467
v 4.127683 1.344570 5.159464
v 4.199075 1.344570 4.434605
v 4.127683 1.344570 3.709746
v 3.916249 1.344570 3.012743
v 3.572899 1.344570 2.370381
v 3.110828 1.344570 1.807347
v 2.547794 1.344570 1.345277
v 1.905433 1.344570 1.001927
v 1.208429 1.344570 0.790494
v 0.483570 1.344570 0.719102
v -0.241289 1.344570 0.790495
v -0.938292 1.344570 1.001928
v -1.580653 1.344570 1.345278
v -2.143688 1.344570 1.807349
v -2.605758 1.344570 2.370383
v -2.949107 1.344570 3.012745
v -3.160540 1.344570 3.709748
v -3.231933 1.344570 4.434608
v -3.160540 1.344570 5.159466
v -2.949107 1.344570 5.856469
v -2.605757 1.344570 6.498831
v -2.143686 1.344570 7.061865
v -1.580651 1.344570 7.523935
v -0.938289 1.344570 7.867285
v -0.241286 1.344570 8.078718
v 0.483572 1.344570 7.159975
v 1.015265 1.344570 7.107608
v 1.526526 1.344570 6.952518
v 1.997706 1.344570 6.700667
v 2.410699 1.344570 6.361733
v 2.749633 1.344570 5.948739
v 3.001484 1.344570 5.477559
v 3.156574 1.344570 4.966298
v 3.208941 1.344570 4.434605
v 3.156573 1.344570 3.902912
v 3.001484 1.344570 3.391651
v 2.749632 1.344570 2.920471
v 2.410698 1.344570 2.507479
v 1.997705 1.344570 2.168544
v 1.526524 1.344570 1.916693
v 1.015264 1.344570 1.761604
v 0.483570 1.344570 1.709237
v -0.048123 1.344570 1.761604
v -0.559383 1.344570 1.916693
v -1.030563 1.344570 2.168545
v -1.443556 1.344570 2.507480
v -1.782491 1.344570 2.920473
v -2.034342 1.344570 3.391653
v -2.189431 1.344570 3.902913
v -2.241798 1.344570 4.434607
v -2.189430 1.344570 4.966300
v -2.034342 1.344570 5.477561
v -1.782490 1.344570 5.948741
v -1.443555 1.344570 6.361733
v -1.030562 1.344570 6.700668
v -0.559381 1.344570 6.952519
v -0.048121 1.344570 7.107609
v 0.480289 1.344570 6.500869
v 0.885518 1.344570 6.460958
v 1.275175 1.344570 6.342756
v 1.634285 1.344570 6.150808
v 1.949047 1.344570 5.892489
v 2.207365 1.344570 5.577727
v 2.399313 1.344570 5.218617
v 2.517514 1.344570 4.828960
v 2.557426 1.344570 4.423731
v 2.517514 1.344570 4.018502
v 2.399313 1.344570 3.628845
v 2.207365 1.344570 3.269735
v 1.949046 1.344570 2.954973
v 1.634283 1.344570 2.696655
v 1.275174 1.344570 2.504707
v 0.885517 1.344570 2.386505
v 0.480288 1.344570 2.346594
v 0.075058 1.344570 2.386506
v -0.314599 1.344570 2.504707
v -0.673708 1.344570 2.696655
v -0.988470 1.344570 2.954974
v -1.246789 1.344570 3.269736
v -1.438736 1.344570 3.628846
v -1.556938 1.344570 4.018503
v -1.596849 1.344570 4.423733
v -1.556937 1.344570 4.828962
v -1.438736 1.344570 5.218619
v -1.246788 1.344570 5.577728
v -0.988469 1.344570 5.892490
v -0.673707 1.344570 6.150809
v -0.314597 1.344570 6.342757
v 0.075060 1.344570 6.460958
v 0.480289 1.344570 5.665488
v 0.722543 1.344570 5.641628
v 0.955488 1.344570 5.570966
v 1.170172 1.344570 5.456214
v 1.358343 1.344570 5.301786
v 1.512772 1.344570 5.113615
v 1.627522 1.344570 4.898931
v 1.698185 1.344570 4.665986
v 1.722045 1.344570 4.423731
v 1.698185 1.344570 4.181476
v 1.627522 1.344570 3.948531
v 1.512771 1.344570 3.733848
v 1.358343 1.344570 3.545677
v 1.170171 1.344570 3.391249
v 0.955488 1.344570 3.276498
v 0.722543 1.344570 3.205835
v 0.480288 1.344570 3.181975
v 0.238033 1.344570 3.205835
v 0.005088 1.344570 3.276498
v -0.209595 1.344570 3.391249
v -0.397767 1.344570 3.545677
v -0.552195 1.344570 3.733849
v -0.666945 1.344570 3.948533
v -0.737609 1.344570 4.181477
v -0.761469 1.344570 4.423732
v -0.737608 1.344570 4.665987
v -0.666945 1.344570 4.898932
v -0.552194 1.344570 5.113615
v -0.397766 1.344570 5.301787
v -0.209595 1.344570 5.456215
v 0.005089 1.344570 5.570966
v 0.238034 1.344570 5.641629
v 0.483573 1.307415 8.150110
v 1.208432 1.307415 8.078716
v 1.905434 1.307415 7.867284
v 2.547796 1.307415 7.523933
v 3.110831 1.307415 7.061863
v 3.572901 1.307415 6.498829
v 3.916250 1.307415 5.856467
v 4.127683 1.307415 5.159464
v 4.199075 1.307415 4.434605
v 4.127683 1.307415 3.709746
v 3.916249 1.307415 3.012743
v 3.572899 1.307415 2.370381
v 3.110828 1.307415 1.807347
v 2.547794 1.307415 1.345277
v 1.905433 1.307415 1.001927
v 1.208429 1.307415 0.790494
v 0.483570 1.307415 0.719102
v -0.241289 1.307415 0.790495
v -0.938292 1.307415 1.001928
v -1.580653 1.307415 1.345278
v -2.143688 1.307415 1.807349
v -2.605758 1.307415 2.370383
v -2.949107 1.307415 3.012745
v -3.160540 1.307415 3.709748
v -3.231933 1.307415 4.434608
v -3.160540 1.307415 5.159466
v -2.949107 1.307415 5.856469
v -2.605757 1.307415 6.498831
v -2.143686 1.307415 7.061865
v -1.580651 1.307415 7.523935
v -0.938289 1.307415 7.867285
v -0.241286 1.307415 8.078718
v 0.483573 1.307415 8.150110
v 1.208432 1.307415 8.078716
v 1.905434 1.307415 7.867284
v 2.547796 1.307415 7.523933
v 3.110831 1.307415 7.061863
v 3.572901 1.307415 6.498829
v 3.916250 1.307415 5.856467
v 4.127683 1.307415 5.159464
v 4.199075 1.307415 4.434605
v 4.127683 1.307415 3.709746
v 3.916249 1.307415 3.012743
v 3.572899 1.307415 2.370381
v 3.110828 1.307415 1.807347
v 2.547794 1.307415 1.345277
v 1.905433 1.307415 1.001927
v 1.208429 1.307415 0.790494
v 0.483570 1.307415 0.719102
v -0.241289 1.307415 0.790495
v -0.938292 1.307415 1.001928
v -1.580653 1.307415 1.345278
v -2.143688 1.307415 1.807349
v -2.605758 1.307415 2.370383
v -2.949107 1.307415 3.012745
v -3.160540 1.307415 3.709748
v -3.231933 1.307415 4.434608
v -3.160540 1.307415 5.159466
v -2.949107 1.307415 5.856469
v -2.605757 1.307415 6.498831
v -2.143686 1.307415 7.061865
v -1.580651 1.307415 7.523935
v -0.938289 1.307415 7.867285
v -0.241286 1.307415 8.078718
v 0.483573 1.307415 8.150110
v 1.208432 1.307415 8.078716
v 1.905434 1.307415 7.867284
v 2.547796 1.307415 7.523933
v 3.110831 1.307415 7.061863
v 3.572901 1.307415 6.498829
v 3.916250 1.307415 5.856467
v 4.127683 1.307415 5.159464
v 4.199075 1.307415 4.434605
v 4.127683 1.307415 3.709746
v 3.916249 1.307415 3.012743
v 3.572899 1.307415 2.370381
v 3.110828 1.307415 1.807347
v 2.547794 1.307415 1.345277
v 1.905433 1.307415 1.001927
v 1.208429 1.307415 0.790494
v 0.483570 1.307415 0.719102
v -0.241289 1.307415 0.790495
v -0.938292 1.307415 1.001928
v -1.580653 1.307415 1.345278
v -2.143688 1.307415 1.807349
v -2.605758 1.307415 2.370383
v -2.949107 1.307415 3.012745
v -3.160540 1.307415 3.709748
v -3.231933 1.307415 4.434608
v -3.160540 1.307415 5.159466
v -2.949107 1.307415 5.856469
v -2.605757 1.307415 6.498831
v -2.143686 1.307415 7.061865
v -1.580651 1.307415 7.523935
v -0.938289 1.307415 7.867285
v -0.241286 1.307415 8.078718
v 0.483573 1.307415 8.150110
v 1.208432 1.307415 8.078716
v 1.905434 1.307415 7.867284
v 2.547796 1.307415 7.523933
v 3.110831 1.307415 7.061863
v 3.572901 1.307415 6.498829
v 3.916250 1.307415 5.856467
v 4.127683 1.307415 5.159464
v 4.199075 1.307415 4.434605
v 4.127683 1.307415 3.709746
v 3.916249 1.307415 3.012743
v 3.572899 1.307415 2.370381
v 3.110828 1.307415 1.807347
v 2.547794 1.307415 1.345277
v 1.905433 1.307415 1.001927
v 1.208429 1.307415 0.790494
v 0.483570 1.307415 0.719102
v -0.241289 1.307415 0.790495
v -0.938292 1.307415 1.001928
v -1.580653 1.307415 1.345278
v -2.143688 1.307415 1.807349
v -2.605758 1.307415 2.370383
v -2.949107 1.307415 3.012745
v -3.160540 1.307415 3.709748
v -3.231933 1.307415 4.434608
v -3.160540 1.307415 5.159466
v -2.949107 1.307415 5.856469
v -2.605757 1.307415 6.498831
v -2.143686 1.307415 7.061865
v -1.580651 1.307415 7.523935
v -0.938289 1.307415 7.867285
v -0.241286 1.307415 8.078718
v 0.483573 1.307415 8.150110
v 1.208432 1.307415 8.078716
v 1.905434 1.307415 7.867284
v 2.547796 1.307415 7.523933
v 3.110831 1.307415 7.061863
v 3.572901 1.307415 6.498829
v 3.916250 1.307415 5.856467
v 4.127683 1.307415 5.159464
v 4.199075 1.307415 4.434605
v 4.127683 1.307415 3.709746
v 3.916249 1.307415 3.012743
v 3.572899 1.307415 2.370381
v 3.110828 1.307415 1.807347
v 2.547794 1.307415 1.345277
v 1.905433 1.307415 1.001927
v 1.208429 1.307415 0.790494
v 0.483570 1.307415 0.719102
v -0.241289 1.307415 0.790495
v -0.938292 1.307415 1.001928
v -1.580653 1.307415 1.345278
v -2.143688 1.307415 1.807349
v -2.605758 1.307415 2.370383
v -2.949107 1.307415 3.012745
v -3.160540 1.307415 3.709748
v -3.231933 1.307415 4.434608
v -3.160540 1.307415 5.159466
v -2.949107 1.307415 5.856469
v -2.605757 1.307415 6.498831
v -2.143686 1.307415 7.061865
v -1.580651 1.307415 7.523935
v -0.938289 1.307415 7.867285
v -0.241286 1.307415 8.078718
v 0.483572 1.381725 7.159975
v 1.015265 1.381725 7.107608
v 1.526526 1.381725 6.952518
v 1.997706 1.381725 6.700667
v 2.410699 1.381725 6.361733
v 2.749633 1.381725 5.948739
v 3.001484 1.381725 5.477559
v 3.156574 1.381725 4.966298
v 3.208941 1.381725 4.434605
v 3.156573 1.381725 3.902912
v 3.001484 1.381725 3.391651
v 2.749632 1.381725 2.920471
v 2.410698 1.381725 2.507479
v 1.997705 1.381725 2.168544
v 1.526524 1.381725 1.916693
v 1.015264 1.381725 1.761604
v 0.483570 1.381725 1.709237
v -0.048123 1.381725 1.761604
v -0.559383 1.381725 1.916693
v -1.030563 1.381725 2.168545
v -1.443556 1.381725 2.507480
v -1.782491 1.381725 2.920473
v -2.034342 1.381725 3.391653
v -2.189431 1.381725 3.902913
v -2.241798 1.381725 4.434607
v -2.189430 1.381725 4.966300
v -2.034342 1.381725 5.477561
v -1.782490 1.381725 5.948741
v -1.443555 1.381725 6.361733
v -1.030562 1.381725 6.700668
v -0.559381 1.381725 6.952519
v -0.048121 1.381725 7.107609
v 0.480289 1.381725 6.500869
v 0.885518 1.381725 6.460958
v 1.275175 1.381725 6.342756
v 1.634285 1.381725 6.150808
v 1.949047 1.381725 5.892489
v 2.207365 1.381725 5.577727
v 2.399313 1.381725 5.218617
v 2.517514 1.381725 4.828960
v 2.557426 1.381725 4.423731
v 2.517514 1.381725 4.018502
v 2.399313 1.381725 3.628845
v 2.207365 1.381725 3.269735
v 1.949046 1.381725 2.954973
v 1.634283 1.381725 2.696655
v 1.275174 1.381725 2.504707
v 0.885517 1.381725 2.386505
v 0.480288 1.381725 2.346594
v 0.075058 1.381725 2.386506
v -0.314599 1.381725 2.504707
v -0.673708 1.381725 2.696655
v -0.988470 1.381725 2.954974
v -1.246789 1.381725 3.269736
v -1.438736 1.381725 3.628846
v -1.556938 1.381725 4.018503
v -1.596849 1.381725 4.423733
v -1.556937 1.381725 4.828962
v -1.438736 1.381725 5.218619
v -1.246788 1.381725 5.577728
v -0.988469 1.381725 5.892490
v -0.673707 1.381725 6.150809
v -0.314597 1.381725 6.342757
v 0.075060 1.381725 6.460958
v 0.480289 1.381725 5.665488
v 0.722543 1.381725 5.641628
v 0.955488 1.381725 5.570966
v 1.170172 1.381725 5.456214
v 1.358343 1.381725 5.301786
v 1.512772 1.381725 5.113615
v 1.627522 1.381725 4.898931
v 1.698185 1.381725 4.665986
v 1.722045 1.381725 4.423731
v 1.698185 1.381725 4.181476
v 1.627522 1.381725 3.948531
v 1.512771 1.381725 3.733848
v 1.358343 1.381725 3.545677
v 1.170171 1.381725 3.391249
v 0.955488 1.381725 3.276498
v 0.722543 1.381725 3.205835
v 0.480288 1.381725 3.181975
v 0.238033 1.381725 3.205835
v 0.005088 1.381725 3.276498
v -0.209595 1.381725 3.391249
v -0.397767 1.381725 3.545677
v -0.552195 1.381725 3.733849
v -0.666945 1.381725 3.948533
v -0.737609 1.381725 4.181477
v -0.761469 1.381725 4.423732
v -0.737608 1.381725 4.665987
v -0.666945 1.381725 4.898932
v -0.552194 1.381725 5.113615
v -0.397766 1.381725 5.301787
v -0.209595 1.381725 5.456215
v 0.005089 1.381725 5.570966
v 0.238034 1.381725 5.641629
vn -0.0000 1.0000 -0.0000
vn -0.0000 -1.0000 -0.0000
vn -0.0748 0.9972 0.0074
vn 0.0581 0.9972 -0.0477
vn -0.0720 0.9972 0.0218
vn 0.0477 0.9972 -0.0581
vn -0.0663 0.9972 0.0354
vn 0.0354 0.9972 -0.0663
vn 0.0074 0.9972 0.0748
vn -0.0581 0.9972 0.0477
vn 0.0218 0.9972 -0.0720
vn 0.0218 0.9972 0.0720
vn -0.0477 0.9972 0.0581
vn 0.0074 0.9972 -0.0748
vn 0.0354 0.9972 0.0663
vn -0.0354 0.9972 0.0663
vn -0.0074 0.9972 -0.0748
vn 0.0477 0.9972 0.0581
vn -0.0218 0.9972 0.0720
vn -0.0218 0.9972 -0.0720
vn 0.0581 0.9972 0.0477
vn -0.0074 0.9972 0.0748
vn -0.0354 0.9972 -0.0663
vn 0.0663 0.9972 0.0354
vn -0.0477 0.9972 -0.0581
vn 0.0720 0.9972 0.0218
vn -0.0581 0.9972 -0.0477
vn 0.0748 0.9972 0.0074
vn -0.0663 0.9972 -0.0354
vn 0.0748 0.9972 -0.0074
vn -0.0720 0.9972 -0.0218
vn 0.0720 0.9972 -0.0218
vn -0.0748 0.9972 -0.0074
vn 0.0663 0.9972 -0.0354
vn -0.0980 -0.0000 -0.9952
vn -0.2903 -0.0000 -0.9569
vn -0.4714 -0.0000 -0.8819
vn -0.6344 -0.0000 -0.7730
vn -0.7730 -0.0000 -0.6344
vn -0.8819 -0.0000 -0.4714
vn -0.9569 -0.0000 -0.2903
vn -0.9952 -0.0000 -0.0980
vn -0.9952 -0.0000 0.0980
vn -0.9569 -0.0000 0.2903
vn -0.8819 -0.0000 0.4714
vn -0.7730 -0.0000 0.6344
vn -0.6344 -0.0000 0.7730
vn -0.4714 -0.0000 0.8819
vn -0.2903 -0.0000 0.9569
vn -0.0980 -0.0000 0.9952
vn 0.0980 -0.0000 0.9952
vn 0.2903 -0.0000 0.9569
vn 0.4714 -0.0000 0.8819
vn 0.6344 -0.0000 0.7730
vn 0.7730 -0.0000 0.6344
vn 0.8819 -0.0000 0.4714
vn 0.9569 -0.0000 0.2903
vn 0.9952 -0.0000 0.0980
vn 0.9952 -0.0000 -0.0980
vn 0.9569 -0.0000 -0.2903
vn 0.8819 -0.0000 -0.4714
vn 0.7730 -0.0000 -0.6344
vn 0.6344 -0.0000 -0.7730
vn 0.4714 -0.0000 -0.8819
vn 0.2903 -0.0000 -0.9569
vn 0.0980 -0.0000 -0.9952
vt 0.000000 0.000000
s 0
usemtl 
f 26/1/1 25/1/1 57/1/1 58/1/1
f 13/1/1 12/1/1 44/1/1 45/1/1
f 27/1/1 26/1/1 58/1/1 59/1/1
f 14/1/1 13/1/1 45/1/1 46/1/1
f 28/1/1 27/1/1 59/1/1 60/1/1
f 15/1/1 14/1/1 46/1/1 47/1/1
f 2/1/1 1/1/1 33/1/1 34/1/1
f 29/1/1 28/1/1 60/1/1 61/1/1
f 16/1/1 15/1/1 47/1/1 48/1/1
f 3/1/1 2/1/1 34/1/1 35/1/1
f 30/1/1 29/1/1 61/1/1 62/1/1
f 17/1/1 16/1/1 48/1/1 49/1/1
f 4/1/1 3/1/1 35/1/1 36/1/1
f 31/1/1 30/1/1 62/1/1 63/1/1
f 18/1/1 17/1/1 49/1/1 50/1/1
f 5/1/1 4/1/1 36/1/1 37/1/1
f 32/1/1 31/1/1 63/1/1 64/1/1
f 19/1/1 18/1/1 50/1/1 51/1/1
f 6/1/1 5/1/1 37/1/1 38/1/1
f 1/1/1 32/1/1 64/1/1 33/1/1
f 20/1/1 19/1/1 51/1/1 52/1/1
f 7/1/1 6/1/1 38/1/1 39/1/1
f 21/1/1 20/1/1 52/1/1 53/1/1
f 8/1/1 7/1/1 39/1/1 40/1/1
f 22/1/1 21/1/1 53/1/1 54/1/1
f 9/1/1 8/1/1 40/1/1 41/1/1
f 23/1/1 22/1/1 54/1/1 55/1/1
f 10/1/1 9/1/1 41/1/1 42/1/1
f 24/1/1 23/1/1 55/1/1 56/1/1
f 11/1/1 10/1/1 42/1/1 43/1/1
f 25/1/1 24/1/1 56/1/1 57/1/1
f 12/1/1 11/1/1 43/1/1 44/1/1
f 35/1/1 34/1/1 66/1/1 67/1/1
f 62/1/1 61/1/1 93/1/1 94/1/1
f 49/1/1 48/1/1 80/1/1 81/1/1
f 36/1/1 35/1/1 67/1/1 68/1/1
f 63/1/1 62/1/1 94/1/1 95/1/1
f 50/1/1 49/1/1 81/1/1 82/1/1
f 37/1/1 36/1/1 68/1/1 69/1/1
f 64/1/1 63/1/1 95/1/1 96/1/1
f 51/1/1 50/1/1 82/1/1 83/1/1
f 38/1/1 37/1/1 69/1/1 70/1/1
f 33/1/1 64/1/1 96/1/1 65/1/1
f 52/1/1 51/1/1 83/1/1 84/1/1
f 39/1/1 38/1/1 70/1/1 71/1/1
f 53/1/1 52/1/1 84/1/1 85/1/1
f 40/1/1 39/1/1 71/1/1 72/1/1
f 54/1/1 53/1/1 85/1/1 86/1/1
f 41/1/1 40/1/1 72/1/1 73/1/1
f 55/1/1 54/1/1 86/1/1 87/1/1
f 42/1/1 41/1/1 73/1/1 74/1/1
f 56/1/1 55/1/1 87/1/1 88/1/1
f 43/1/1 42/1/1 74/1/1 75/1/1
f 57/1/1 56/1/1 88/1/1 89/1/1
f 44/1/1 43/1/1 75/1/1 76/1/1
f 58/1/1 57/1/1 89/1/1 90/1/1
f 45/1/1 44/1/1 76/1/1 77/1/1
f 59/1/1 58/1/1 90/1/1 91/1/1
f 46/1/1 45/1/1 77/1/1 78/1/1
f 60/1/1 59/1/1 91/1/1 92/1/1
f 47/1/1 46/1/1 78/1/1 79/1/1
f 34/1/1 33/1/1 65/1/1 66/1/1
f 61/1/1 60/1/1 92/1/1 93/1/1
f 48/1/1 47/1/1 79/1/1 80/1/1
f 92/1/1 91/1/1 123/1/1 124/1/1
f 79/1/1 78/1/1 110/1/1 111/1/1
f 66/1/1 65/1/1 97/1/1 98/1/1
f 93/1/1 92/1/1 124/1/1 125/1/1
f 80/1/1 79/1/1 111/1/1 112/1/1
f 67/1/1 66/1/1 98/1/1 99/1/1
f 94/1/1 93/1/1 125/1/1 126/1/1
f 81/1/1 80/1/1 112/1/1 113/1/1
f 68/1/1 67/1/1 99/1/1 100/1/1
f 95/1/1 94/1/1 126/1/1 127/1/1
f 82/1/1 81/1/1 113/1/1 114/1/1
f 69/1/1 68/1/1 100/1/1 101/1/1
f 96/1/1 95/1/1 127/1/1 128/1/1
f 83/1/1 82/1/1 114/1/1 115/1/1
f 70/1/1 69/1/1 101/1/1 102/1/1
f 65/1/1 96/1/1 128/1/1 97/1/1
f 84/1/1 83/1/1 115/1/1 116/1/1
f 71/1/1 70/1/1 102/1/1 103/1/1
f 85/1/1 84/1/1 116/1/1 117/1/1
f 72/1/1 71/1/1 103/1/1 104/1/1
f 86/1/1 85/1/1 117/1/1 118/1/1
f 73/1/1 72/1/1 104/1/1 105/1/1
f 87/1/1 86/1/1 118/1/1 119/1/1
f 74/1/1 73/1/1 105/1/1 106/1/1
f 88/1/1 87/1/1 119/1/1 120/1/1
f 75/1/1 74/1/1 106/1/1 107/1/1
f 89/1/1 88/1/1 120/1/1 121/1/1
f 76/1/1 75/1/1 107/1/1 108/1/1
f 90/1/1 89/1/1 121/1/1 122/1/1
f 77/1/1 76/1/1 108/1/1 109/1/1
f 91/1/1 90/1/1 122/1/1 123/1/1
f 78/1/1 77/1/1 109/1/1 110/1/1
f 127/1/1 126/1/1 158/1/1 159/1/1
f 114/1/1 113/1/1 145/1/1 146/1/1
f 101/1/1 100/1/1 132/1/1 133/1/1
f 128/1/1 127/1/1 159/1/1 160/1/1
f 115/1/1 114/1/1 146/1/1 147/1/1
f 102/1/1 101/1/1 133/1/1 134/1/1
f 97/1/1 128/1/1 160/1/1 129/1/1
f 116/1/1 115/1/1 147/1/1 148/1/1
f 103/1/1 102/1/1 134/1/1 135/1/1
f 117/1/1 116/1/1 148/1/1 149/1/1
f 104/1/1 103/1/1 135/1/1 136/1/1
f 118/1/1 117/1/1 149/1/1 150/1/1
f 105/1/1 104/1/1 136/1/1 137/1/1
f 119/1/1 118/1/1 150/1/1 151/1/1
f 106/1/1 105/1/1 137/1/1 138/1/1
f 120/1/1 119/1/1 151/1/1 152/1/1
f 107/1/1 106/1/1 138/1/1 139/1/1
f 121/1/1 120/1/1 152/1/1 153/1/1
f 108/1/1 107/1/1 139/1/1 140/1/1
f 122/1/1 121/1/1 153/1/1 154/1/1
f 109/1/1 108/1/1 140/1/1 141/1/1
f 123/1/1 122/1/1 154/1/1 155/1/1
f 110/1/1 109/1/1 141/1/1 142/1/1
f 124/1/1 123/1/1 155/1/1 156/1/1
f 111/1/1 110/1/1 142/1/1 143/1/1
f 98/1/1 97/1/1 129/1/1 130/1/1
f 125/1/1 124/1/1 156/1/1 157/1/1
f 112/1/1 111/1/1 143/1/1 144/1/1
f 99/1/1 98/1/1 130/1/1 131/1/1
f 126/1/1 125/1/1 157/1/1 158/1/1
f 113/1/1 112/1/1 144/1/1 145/1/1
f 100/1/1 99/1/1 131/1/1 132/1/1
f 154/1/2 153/1/2 185/1/2 186/1/2
f 141/1/2 140/1/2 172/1/2 173/1/2
f 155/1/2 154/1/2 186/1/2 187/1/2
f 142/1/2 141/1/2 173/1/2 174/1/2
f 156/1/2 155/1/2 187/1/2 188/1/2
f 143/1/2 142/1/2 174/1/2 175/1/2
f 130/1/2 129/1/2 161/1/2 162/1/2
f 157/1/2 156/1/2 188/1/2 189/1/2
f 144/1/2 143/1/2 175/1/2 176/1/2
f 131/1/2 130/1/2 162/1/2 163/1/2
f 158/1/2 157/1/2 189/1/2 190/1/2
f 145/1/2 144/1/2 176/1/2 177/1/2
f 132/1/2 131/1/2 163/1/2 164/1/2
f 159/1/2 158/1/2 190/1/2 191/1/2
f 146/1/2 145/1/2 177/1/2 178/1/2
f 133/1/2 132/1/2 164/1/2 165/1/2
f 160/1/2 159/1/2 191/1/2 192/1/2
f 147/1/2 146/1/2 178/1/2 179/1/2
f 134/1/2 133/1/2 165/1/2 166/1/2
f 129/1/2 160/1/2 192/1/2 161/1/2
f 148/1/2 147/1/2 179/1/2 180/1/2
f 135/1/2 134/1/2 166/1/2 167/1/2
f 149/1/2 148/1/2 180/1/2 181/1/2
f 136/1/2 135/1/2 167/1/2 168/1/2
f 150/1/2 149/1/2 181/1/2 182/1/2
f 137/1/2 136/1/2 168/1/2 169/1/2
f 151/1/2 150/1/2 182/1/2 183/1/2
f 138/1/2 137/1/2 169/1/2 170/1/2
f 152/1/2 151/1/2 183/1/2 184/1/2
f 139/1/2 138/1/2 170/1/2 171/1/2
f 153/1/2 152/1/2 184/1/2 185/1/2
f 140/1/2 139/1/2 171/1/2 172/1/2
f 162/1/2 161/1/2 193/1/2 194/1/2
f 189/1/2 188/1/2 220/1/2 221/1/2
f 176/1/2 175/1/2 207/1/2 208/1/2
f 163/1/2 162/1/2 194/1/2 195/1/2
f 190/1/2 189/1/2 221/1/2 222/1/2
f 177/1/2 176/1/2 208/1/2 209/1/2
f 164/1/2 163/1/2 195/1/2 196/1/2
f 191/1/2 190/1/2 222/1/2 223/1/2
f 178/1/2 177/1/2 209/1/2 210/1/2
f 165/1/2 164/1/2 196/1/2 197/1/2
f 192/1/2 191/1/2 223/1/2 224/1/2
f 179/1/2 178/1/2 210/1/2 211/1/2
f 166/1/2 165/1/2 197/1/2 198/1/2
f 161/1/2 192/1/2 224/1/2 193/1/2
f 180/1/2 179/1/2 211/1/2 212/1/2
f 167/1/2 166/1/2 198/1/2 199/1/2
f 181/1/2 180/1/2 212/1/2 213/1/2
f 168/1/2 167/1/2 199/1/2 200/1/2
f 182/1/2 181/1/2 213/1/2 214/1/2
f 169/1/2 168/1/2 200/1/2 201/1/2
f 183/1/2 182/1/2 214/1/2 215/1/2
f 170/1/2 169/1/2 201/1/2 202/1/2
f 184/1/2 183/1/2 215/1/2 216/1/2
f 171/1/2 170/1/2 202/1/2 203/1/2
f 185/1/2 184/1/2 216/1/2 217/1/2
f 172/1/2 171/1/2 203/1/2 204/1/2
f 186/1/2 185/1/2 217/1/2 218/1/2
f 173/1/2 172/1/2 204/1/2 205/1/2
f 187/1/2 186/1/2 218/1/2 219/1/2
f 174/1/2 173/1/2 205/1/2 206/1/2
f 188/1/2 187/1/2 219/1/2 220/1/2
f 175/1/2 174/1/2 206/1/2 207/1/2
f 197/1/2 196/1/2 228/1/2 229/1/2
f 224/1/2 223/1/2 255/1/2 256/1/2
f 211/1/2 210/1/2 242/1/2 243/1/2
f 198/1/2 197/1/2 229/1/2 230/1/2
f 193/1/2 224/1/2 256/1/2 225/1/2
f 212/1/2 211/1/2 243/1/2 244/1/2
f 199/1/2 198/1/2 230/1/2 231/1/2
f 213/1/2 212/1/2 244/1/2 245/1/2
f 200/1/2 199/1/2 231/1/2 232/1/2
f 214/1/2 213/1/2 245/1/2 246/1/2
f 201/1/2 200/1/2 232/1/2 233/1/2
f 215/1/2 214/1/2 246/1/2 247/1/2
f 202/1/2 201/1/2 233/1/2 234/1/2
f 216/1/2 215/1/2 247/1/2 248/1/2
f 203/1/2 202/1/2 234/1/2 235/1/2
f 217/1/2 216/1/2 248/1/2 249/1/2
f 204/1/2 203/1/2 235/1/2 236/1/2
f 218/1/2 217/1/2 249/1/2 250/1/2
f 205/1/2 204/1/2 236/1/2 237/1/2
f 219/1/2 218/1/2 250/1/2 251/1/2
f 206/1/2 205/1/2 237/1/2 238/1/2
f 220/1/2 219/1/2 251/1/2 252/1/2
f 207/1/2 206/1/2 238/1/2 239/1/2
f 194/1/2 193/1/2 225/1/2 226/1/2
f 221/1/2 220/1/2 252/1/2 253/1/2
f 208/1/2 207/1/2 239/1/2 240/1/2
f 195/1/2 194/1/2 226/1/2 227/1/2
f 222/1/2 221/1/2 253/1/2 254/1/2
f 209/1/2 208/1/2 240/1/2 241/1/2
f 196/1/2 195/1/2 227/1/2 228/1/2
f 223/1/2 222/1/2 254/1/2 255/1/2
f 210/1/2 209/1/2 241/1/2 242/1/2
f 226/1/2 225/1/2 256/1/2 255/1/2 254/1/2 253/1/2 252/1/2 251/1/2 250/1/2 249/1/2 248/1/2 247/1/2 246/1/2 245/1/2 244/1/2 243/1/2 242/1/2 241/1/2 240/1/2 239/1/2 238/1/2 237/1/2 236/1/2 235/1/2 234/1/2 233/1/2 232/1/2 231/1/2 230/1/2 229/1/2 228/1/2 227/1/2
f 282/1/1 314/1/1 313/1/1 281/1/1
f 269/1/1 301/1/1 300/1/1 268/1/1
f 283/1/1 315/1/1 314/1/1 282/1/1
f 270/1/1 302/1/1 301/1/1 269/1/1
f 284/1/1 316/1/1 315/1/1 283/1/1
f 271/1/1 303/1/1 302/1/1 270/1/1
f 258/1/1 290/1/1 289/1/1 257/1/1
f 285/1/1 317/1/1 316/1/1 284/1/1
f 272/1/1 304/1/1 303/1/1 271/1/1
f 259/1/1 291/1/1 290/1/1 258/1/1
f 286/1/1 318/1/1 317/1/1 285/1/1
f 273/1/1 305/1/1 304/1/1 272/1/1
f 260/1/1 292/1/1 291/1/1 259/1/1
f 287/1/1 319/1/1 318/1/1 286/1/1
f 274/1/1 306/1/1 305/1/1 273/1/1
f 261/1/1 293/1/1 292/1/1 260/1/1
f 288/1/1 320/1/1 319/1/1 287/1/1
f 275/1/1 307/1/1 306/1/1 274/1/1
f 262/1/1 294/1/1 293/1/1 261/1/1
f 257/1/1 289/1/1 320/1/1 288/1/1
f 276/1/1 308/1/1 307/1/1 275/1/1
f 263/1/1 295/1/1 294/1/1 262/1/1
f 277/1/1 309/1/1 308/1/1 276/1/1
f 264/1/1 296/1/1 295/1/1 263/1/1
f 278/1/1 310/1/1 309/1/1 277/1/1
f 265/1/1 297/1/1 296/1/1 264/1/1
f 279/1/1 311/1/1 310/1/1 278/1/1
f 266/1/1 298/1/1 297/1/1 265/1/1
f 280/1/1 312/1/1 311/1/1 279/1/1
f 267/1/1 299/1/1 298/1/1 266/1/1
f 281/1/1 313/1/1 312/1/1 280/1/1
f 268/1/1 300/1/1 299/1/1 267/1/1
f 291/1/1 323/1/1 322/1/1 290/1/1
f 318/1/1 350/1/1 349/1/1 317/1/1
f 305/1/1 337/1/1 336/1/1 304/1/1
f 292/1/1 324/1/1 323/1/1 291/1/1
f 319/1/1 351/1/1 350/1/1 318/1/1
f 306/1/1 338/1/1 337/1/1 305/1/1
f 293/1/1 325/1/1 324/1/1 292/1/1
f 320/1/1 352/1/1 351/1/1 319/1/1
f 307/1/1 339/1/1 338/1/1 306/1/1
f 294/1/1 326/1/1 325/1/1 293/1/1
f 289/1/1 321/1/1 352/1/1 320/1/1
f 308/1/1 340/1/1 339/1/1 307/1/1
f 295/1/1 327/1/1 326/1/1 294/1/1
f 309/1/1 341/1/1 340/1/1 308/1/1
f 296/1/1 328/1/1 327/1/1 295/1/1
f 310/1/1 342/1/1 341/1/1 309/1/1
f 297/1/1 329/1/1 328/1/1 296/1/1
f 311/1/1 343/1/1 342/1/1 310/1/1
f 298/1/1 330/1/1 329/1/1 297/1/1
f 312/1/1 344/1/1 343/1/1 311/1/1
f 299/1/1 331/1/1 330/1/1 298/1/1
f 313/1/1 345/1/1 344/1/1 312/1/1
f 300/1/1 332/1/1 331/1/1 299/1/1
f 314/1/1 346/1/1 345/1/1 313/1/1
f 301/1/1 333/1/1 332/1/1 300/1/1
f 315/1/1 347/1/1 346/1/1 314/1/1
f 302/1/1 334/1/1 333/1/1 301/1/1
f 316/1/1 348/1/1 347/1/1 315/1/1
f 303/1/1 335/1/1 334/1/1 302/1/1
f 290/1/1 322/1/1 321/1/1 289/1/1
f 317/1/1 349/1/1 348/1/1 316/1/1
f 304/1/1 336/1/1 335/1/1 303/1/1
f 348/1/1 380/1/1 379/1/1 347/1/1
f 335/1/1 367/1/1 366/1/1 334/1/1
f 322/1/1 354/1/1 353/1/1 321/1/1
f 349/1/1 381/1/1 380/1/1 348/1/1
f 336/1/1 368/1/1 367/1/1 335/1/1
f 323/1/1 355/1/1 354/1/1 322/1/1
f 350/1/1 382/1/1 381/1/1 349/1/1
f 337/1/1 369/1/1 368/1/1 336/1/1
f 324/1/1 356/1/1 355/1/1 323/1/1
f 351/1/1 383/1/1 382/1/1 350/1/1
f 338/1/1 370/1/1 369/1/1 337/1/1
f 325/1/1 357/1/1 356/1/1 324/1/1
f 352/1/1 384/1/1 383/1/1 351/1/1
f 339/1/1 371/1/1 370/1/1 338/1/1
f 326/1/1 358/1/1 357/1/1 325/1/1
f 321/1/1 353/1/1 384/1/1 352/1/1
f 340/1/1 372/1/1 371/1/1 339/1/1
f 327/1/1 359/1/1 358/1/1 326/1/1
f 341/1/1 373/1/1 372/1/1 340/1/1
f 328/1/1 360/1/1 359/1/1 327/1/1
f 342/1/1 374/1/1 373/1/1 341/1/1
f 329/1/1 361/1/1 360/1/1 328/1/1
f 343/1/1 375/1/1 374/1/1 342/1/1
f 330/1/1 362/1/1 361/1/1 329/1/1
f 344/1/1 376/1/1 375/1/1 343/1/1
f 331/1/1 363/1/1 362/1/1 330/1/1
f 345/1/1 377/1/1 376/1/1 344/1/1
f 332/1/1 364/1/1 363/1/1 331/1/1
f 346/1/1 378/1/1 377/1/1 345/1/1
f 333/1/1 365/1/1 364/1/1 332/1/1
f 347/1/1 379/1/1 378/1/1 346/1/1
f 334/1/1 366/1/1 365/1/1 333/1/1
f 383/1/1 415/1/1 414/1/1 382/1/1
f 370/1/1 402/1/1 401/1/1 369/1/1
f 357/1/1 389/1/1 388/1/1 356/1/1
f 384/1/1 416/1/1 415/1/1 383/1/1
f 371/1/1 403/1/1 402/1/1 370/1/1
f 358/1/1 390/1/1 389/1/1 357/1/1
f 353/1/1 385/1/1 416/1/1 384/1/1
f 372/1/1 404/1/1 403/1/1 371/1/1
f 359/1/1 391/1/1 390/1/1 358/1/1
f 373/1/1 405/1/1 404/1/1 372/1/1
f 360/1/1 392/1/1 391/1/1 359/1/1
f 374/1/1 406/1/1 405/1/1 373/1/1
f 361/1/1 393/1/1 392/1/1 360/1/1
f 375/1/1 407/1/1 406/1/1 374/1/1
f 362/1/1 394/1/1 393/1/1 361/1/1
f 376/1/1 408/1/1 407/1/1 375/1/1
f 363/1/1 395/1/1 394/1/1 362/1/1
f 377/1/1 409/1/1 408/1/1 376/1/1
f 364/1/1 396/1/1 395/1/1 363/1/1
f 378/1/1 410/1/1 409/1/1 377/1/1
f 365/1/1 397/1/1 396/1/1 364/1/1
f 379/1/1 411/1/1 410/1/1 378/1/1
f 366/1/1 398/1/1 397/1/1 365/1/1
f 380/1/1 412/1/1 411/1/1 379/1/1
f 367/1/1 399/1/1 398/1/1 366/1/1
f 354/1/1 386/1/1 385/1/1 353/1/1
f 381/1/1 413/1/1 412/1/1 380/1/1
f 368/1/1 400/1/1 399/1/1 367/1/1
f 355/1/1 387/1/1 386/1/1 354/1/1
f 382/1/1 414/1/1 413/1/1 381/1/1
f 369/1/1 401/1/1 400/1/1 368/1/1
f 356/1/1 388/1/1 387/1/1 355/1/1
f 410/1/3 442/1/3 441/1/3 409/1/3
f 397/1/4 429/1/4 428/1/4 396/1/4
f 411/1/5 443/1/5 442/1/5 410/1/5
f 398/1/6 430/1/6 429/1/6 397/1/6
f 412/1/7 444/1/7 443/1/7 411/1/7
f 399/1/8 431/1/8 430/1/8 398/1/8
f 386/1/9 418/1/9 417/1/9 385/1/9
f 413/1/10 445/1/10 444/1/10 412/1/10
f 400/1/11 432/1/11 431/1/11 399/1/11
f 387/1/12 419/1/12 418/1/12 386/1/12
f 414/1/13 446/1/13 445/1/13 413/1/13
f 401/1/14 433/1/14 432/1/14 400/1/14
f 388/1/15 420/1/15 419/1/15 387/1/15
f 415/1/16 447/1/16 446/1/16 414/1/16
f 402/1/17 434/1/17 433/1/17 401/1/17
f 389/1/18 421/1/18 420/1/18 388/1/18
f 416/1/19 448/1/19 447/1/19 415/1/19
f 403/1/20 435/1/20 434/1/20 402/1/20
f 390/1/21 422/1/21 421/1/21 389/1/21
f 385/1/22 417/1/22 448/1/22 416/1/22
f 404/1/23 436/1/23 435/1/23 403/1/23
f 391/1/24 423/1/24 422/1/24 390/1/24
f 405/1/25 437/1/25 436/1/25 404/1/25
f 392/1/26 424/1/26 423/1/26 391/1/26
f 406/1/27 438/1/27 437/1/27 405/1/27
f 393/1/28 425/1/28 424/1/28 392/1/28
f 407/1/29 439/1/29 438/1/29 406/1/29
f 394/1/30 426/1/30 425/1/30 393/1/30
f 408/1/31 440/1/31 439/1/31 407/1/31
f 395/1/32 427/1/32 426/1/32 394/1/32
f 409/1/33 441/1/33 440/1/33 408/1/33
f 396/1/34 428/1/34 427/1/34 395/1/34
f 418/1/1 450/1/1 449/1/1 417/1/1
f 445/1/1 477/1/1 476/1/1 444/1/1
f 432/1/1 464/1/1 463/1/1 431/1/1
f 419/1/1 451/1/1 450/1/1 418/1/1
f 446/1/1 478/1/1 477/1/1 445/1/1
f 433/1/1 465/1/1 464/1/1 432/1/1
f 420/1/1 452/1/1 451/1/1 419/1/1
f 447/1/1 479/1/1 478/1/1 446/1/1
f 434/1/1 466/1/1 465/1/1 433/1/1
f 421/1/1 453/1/1 452/1/1 420/1/1
f 448/1/1 480/1/1 479/1/1 447/1/1
f 435/1/1 467/1/1 466/1/1 434/1/1
f 422/1/1 454/1/1 453/1/1 421/1/1
f 417/1/1 449/1/1 480/1/1 448/1/1
f 436/1/1 468/1/1 467/1/1 435/1/1
f 423/1/1 455/1/1 454/1/1 422/1/1
f 437/1/1 469/1/1 468/1/1 436/1/1
f 424/1/1 456/1/1 455/1/1 423/1/1
f 438/1/1 470/1/1 469/1/1 437/1/1
f 425/1/1 457/1/1 456/1/1 424/1/1
f 439/1/1 471/1/1 470/1/1 438/1/1
f 426/1/1 458/1/1 457/1/1 425/1/1
f 440/1/1 472/1/1 471/1/1 439/1/1
f 427/1/1 459/1/1 458/1/1 426/1/1
f 441/1/1 473/1/1 472/1/1 440/1/1
f 428/1/1 460/1/1 459/1/1 427/1/1
f 442/1/1 474/1/1 473/1/1 441/1/1
f 429/1/1 461/1/1 460/1/1 428/1/1
f 443/1/1 475/1/1 474/1/1 442/1/1
f 430/1/1 462/1/1 461/1/1 429/1/1
f 444/1/1 476/1/1 475/1/1 443/1/1
f 431/1/1 463/1/1 462/1/1 430/1/1
f 453/1/1 485/1/1 484/1/1 452/1/1
f 480/1/1 512/1/1 511/1/1 479/1/1
f 467/1/1 499/1/1 498/1/1 466/1/1
f 454/1/1 486/1/1 485/1/1 453/1/1
f 449/1/1 481/1/1 512/1/1 480/1/1
f 468/1/1 500/1/1 499/1/1 467/1/1
f 455/1/1 487/1/1 486/1/1 454/1/1
f 469/1/1 501/1/1 500/1/1 468/1/1
f 456/1/1 488/1/1 487/1/1 455/1/1
f 470/1/1 502/1/1 501/1/1 469/1/1
f 457/1/1 489/1/1 488/1/1 456/1/1
f 471/1/1 503/1/1 502/1/1 470/1/1
f 458/1/1 490/1/1 489/1/1 457/1/1
f 472/1/1 504/1/1 503/1/1 471/1/1
f 459/1/1 491/1/1 490/1/1 458/1/1
f 473/1/1 505/1/1 504/1/1 472/1/1
f 460/1/1 492/1/1 491/1/1 459/1/1
f 474/1/1 506/1/1 505/1/1 473/1/1
f 461/1/1 493/1/1 492/1/1 460/1/1
f 475/1/1 507/1/1 506/1/1 474/1/1
f 462/1/1 494/1/1 493/1/1 461/1/1
f 476/1/1 508/1/1 507/1/1 475/1/1
f 463/1/1 495/1/1 494/1/1 462/1/1
f 450/1/1 482/1/1 481/1/1 449/1/1
f 477/1/1 509/1/1 508/1/1 476/1/1
f 464/1/1 496/1/1 495/1/1 463/1/1
f 451/1/1 483/1/1 482/1/1 450/1/1
f 478/1/1 510/1/1 509/1/1 477/1/1
f 465/1/1 497/1/1 496/1/1 464/1/1
f 452/1/1 484/1/1 483/1/1 451/1/1
f 479/1/1 511/1/1 510/1/1 478/1/1
f 466/1/1 498/1/1 497/1/1 465/1/1
f 482/1/1 483/1/1 484/1/1 485/1/1 486/1/1 487/1/1 488/1/1 489/1/1 490/1/1 491/1/1 492/1/1 493/1/1 494/1/1 495/1/1 496/1/1 497/1/1 498/1/1 499/1/1 500/1/1 501/1/1 502/1/1 503/1/1 504/1/1 505/1/1 506/1/1 507/1/1 508/1/1 509/1/1 510/1/1 511/1/1 512/1/1 481/1/1
f 1/1/35 2/1/35 258/1/35 257/1/35
f 2/1/36 3/1/36 259/1/36 258/1/36
f 3/1/37 4/1/37 260/1/37 259/1/37
f 4/1/38 5/1/38 261/1/38 260/1/38
f 5/1/39 6/1/39 262/1/39 261/1/39
f 6/1/40 7/1/40 263/1/40 262/1/40
f 7/1/41 8/1/41 264/1/41 263/1/41
f 8/1/42 9/1/42 265/1/42 264/1/42
f 9/1/43 10/1/43 266/1/43 265/1/43
f 10/1/44 11/1/44 267/1/44 266/1/44
f 11/1/45 12/1/45 268/1/45 267/1/45
f 12/1/46 13/1/46 269/1/46 268/1/46
f 13/1/47 14/1/47 270/1/47 269/1/47
f 14/1/48 15/1/48 271/1/48 270/1/48
f 15/1/49 16/1/49 272/1/49 271/1/49
f 16/1/50 17/1/50 273/1/50 272/1/50
f 17/1/51 18/1/51 274/1/51 273/1/51
f 18/1/52 19/1/52 275/1/52 274/1/52
f 19/1/53 20/1/53 276/1/53 275/1/53
f 20/1/54 21/1/54 277/1/54 276/1/54
f 21/1/55 22/1/55 278/1/55 277/1/55
f 22/1/56 23/1/56 279/1/56 278/1/56
f 23/1/57 24/1/57 280/1/57 279/1/57
f 24/1/58 25/1/58 281/1/58 280/1/58
f 25/1/59 26/1/59 282/1/59 281/1/59
f 26/1/60 27/1/60 283/1/60 282/1/60
f 27/1/61 28/1/61 284/1/61 283/1/61
f 28/1/62 29/1/62 285/1/62 284/1/62
f 29/1/63 30/1/63 286/1/63 285/1/63
f 30/1/64 31/1/64 287/1/64 286/1/64
f 31/1/65 32/1/65 288/1/65 287/1/65
f 32/1/66 1/1/66 257/1/66 288/1/66
